<?xml version="1.0" encoding="UTF-8" standalone="no"?>
<!-- Created with Inkscape (http://www.inkscape.org/) -->

<svg
   width="48"
   height="48"
   viewBox="0 0 48 48"
   version="1.1"
   id="svg1"
   xml:space="preserve"
   inkscape:version="1.4.4 (dcaf3e7, 2026-05-05)"
   sodipodi:docname="Germish.svg"
   inkscape:export-filename="Germish.png"
   inkscape:export-xdpi="128"
   inkscape:export-ydpi="128"
   xmlns:inkscape="http://www.inkscape.org/namespaces/inkscape"
   xmlns:sodipodi="http://sodipodi.sourceforge.net/DTD/sodipodi-0.dtd"
   xmlns="http://www.w3.org/2000/svg"
   xmlns:svg="http://www.w3.org/2000/svg"><sodipodi:namedview
     id="namedview1"
     pagecolor="#000000"
     bordercolor="#000000"
     borderopacity="0.25"
     inkscape:showpageshadow="2"
     inkscape:pageopacity="0.0"
     inkscape:pagecheckerboard="true"
     inkscape:deskcolor="#d1d1d1"
     inkscape:document-units="px"
     showgrid="true"
     inkscape:zoom="14.198233"
     inkscape:cx="21.305468"
     inkscape:cy="28.207735"
     inkscape:window-width="1673"
     inkscape:window-height="1056"
     inkscape:window-x="55"
     inkscape:window-y="33"
     inkscape:window-maximized="0"
     inkscape:current-layer="layer1"><inkscape:grid
       id="grid1"
       units="px"
       originx="0"
       originy="0"
       spacingx="1"
       spacingy="1"
       empcolor="#0099e5"
       empopacity="0.30196078"
       color="#0099e5"
       opacity="0.14901961"
       empspacing="5"
       enabled="true"
       visible="true" /><sodipodi:guide
       position="0,48"
       orientation="0,48"
       id="guide1"
       inkscape:locked="false" /><sodipodi:guide
       position="48,48"
       orientation="48,0"
       id="guide2"
       inkscape:locked="false" /><sodipodi:guide
       position="48,0"
       orientation="0,-48"
       id="guide3"
       inkscape:locked="false" /><sodipodi:guide
       position="0,0"
       orientation="-48,0"
       id="guide4"
       inkscape:locked="false" /></sodipodi:namedview><defs
     id="defs1"><inkscape:path-effect
       effect="fillet_chamfer"
       id="path-effect4"
       is_visible="true"
       lpeversion="1"
       nodesatellites_param="F,0,0,1,0,10,0,1 @ F,0,0,1,0,10,0,1 @ F,0,0,1,0,10,0,1 @ F,0,0,1,0,10,0,1"
       radius="10"
       unit="px"
       method="auto"
       mode="F"
       chamfer_steps="1"
       flexible="false"
       use_knot_distance="true"
       apply_no_radius="true"
       apply_with_radius="true"
       only_selected="false"
       hide_knots="false" /><inkscape:path-effect
       effect="fillet_chamfer"
       id="path-effect1"
       is_visible="true"
       lpeversion="1"
       nodesatellites_param="F,0,0,1,0,11,0,1 @ F,0,0,1,0,11,0,1 @ F,0,0,1,0,11,0,1 @ F,0,0,1,0,11,0,1"
       radius="11"
       unit="px"
       method="auto"
       mode="F"
       chamfer_steps="1"
       flexible="false"
       use_knot_distance="true"
       apply_no_radius="true"
       apply_with_radius="true"
       only_selected="false"
       hide_knots="false" /></defs><g
     inkscape:label="Ebene 1"
     inkscape:groupmode="layer"
     id="layer1"
     style="display:inline;opacity:1;fill:none"><path
       id="rect4"
       style="display:inline;opacity:1;fill:#000000;stroke:none;stroke-width:2.5;stroke-linecap:round;stroke-linejoin:round;stroke-opacity:1;fill-opacity:1"
       d="M 10 0 A 10 10 0 0 0 0 10 L 0 38 A 10 10 0 0 0 10 48 L 38 48 A 10 10 0 0 0 48 38 L 48 10 A 10 10 0 0 0 38 0 L 10 0 z M 24.480469 6.5039062 C 27.199219 6.5039062 29.597657 6.9882812 31.675781 7.9570312 C 33.753907 8.9101563 35.441407 10.222656 36.738281 11.894531 C 38.050781 13.566407 38.894531 15.464844 39.269531 17.589844 L 39.339844 17.917969 L 32.238281 17.917969 L 32.144531 17.683594 C 31.582031 16.042968 30.644531 14.769531 29.332031 13.863281 C 28.019531 12.957031 26.410156 12.503906 24.503906 12.503906 C 22.644532 12.503906 21.042969 12.949218 19.699219 13.839844 C 18.371093 14.714844 17.347656 15.996094 16.628906 17.683594 C 15.925782 19.371094 15.574219 21.410157 15.574219 23.800781 L 15.574219 23.824219 C 15.574219 25.652343 15.785157 27.292968 16.207031 28.746094 C 16.628907 30.183594 17.238282 31.402344 18.035156 32.402344 C 18.847656 33.402344 19.816406 34.167969 20.941406 34.699219 C 22.082032 35.230469 23.355469 35.496094 24.761719 35.496094 C 26.292969 35.496094 27.644532 35.214844 28.816406 34.652344 C 30.003906 34.074218 30.933593 33.269531 31.605469 32.238281 C 32.292969 31.191407 32.667969 29.972657 32.730469 28.582031 L 32.753906 28.089844 L 25.019531 28.089844 L 25.019531 22.816406 L 39.644531 22.816406 L 39.644531 26.707031 C 39.644531 29.003907 39.300781 31.066407 38.613281 32.894531 C 37.941407 34.722657 36.957032 36.277344 35.660156 37.558594 C 34.378906 38.839844 32.808593 39.816407 30.949219 40.488281 C 29.089843 41.160157 26.988281 41.496093 24.644531 41.496094 C 22.113281 41.496094 19.839843 41.097657 17.824219 40.300781 C 15.824219 39.503907 14.121094 38.347657 12.714844 36.832031 C 11.308594 35.300781 10.230469 33.449218 9.4804688 31.277344 C 8.7304688 29.105468 8.3554688 26.644531 8.3554688 23.894531 L 8.3554688 23.871094 C 8.3554688 20.246094 9.0117186 17.144532 10.324219 14.566406 C 11.636719 11.972656 13.496094 9.9804685 15.902344 8.5898438 C 18.324218 7.1992187 21.183593 6.5039062 24.480469 6.5039062 z " /></g></svg>
